<svg viewBox="0 0 275 115.6" xmlns="http://www.w3.org/2000/svg" id="a"><defs><style>.b{fill:none;stroke:#f16332;stroke-miterlimit:10;}.c{fill:#442c7f;}.c,.d{stroke-width:0px;}.d{fill:#f16332;}</style></defs><path d="m36.9,109.5v6.1H7.9c-5.3,0-7.9-2.1-7.9-6.4v-13.4c0-4.3,2.6-6.4,7.9-6.4h28.9v6.1H7.9c-1,0-1.5.4-1.5,1.3v2.7h30.2v6.1H6.4v2.7c0,.9.5,1.3,1.5,1.3h29Z" class="d"></path><path d="m50.2,97.4c-.5-.5-1-1-1.7-1.4-.7-.4-1.4-.6-2.1-.6h-.3v20.1h-6.2v-26.3h6.6c1.8,0,3.2.3,4.4.9,1.2.6,2.3,1.5,3.4,2.7l12.7,14.6c.5.5,1,1,1.7,1.4.7.4,1.3.6,2,.6h.3v-20.1h6.3v26.3h-6.6c-1.8,0-3.4-.3-4.6-.9-1.3-.6-2.4-1.5-3.5-2.8l-12.4-14.5Z" class="d"></path><path d="m97.1,108.2c.5.8,1,1.2,1.7,1.2h1.8c.3,0,.6,0,.9-.3.3-.2.6-.5.8-.9l10.8-18.9h7.4l-13.7,24.1c-.9,1.5-2.2,2.2-4,2.2h-6.2c-.6,0-1.1,0-1.5-.1-.4,0-.7-.2-1-.4-.3-.2-.5-.4-.7-.7-.2-.3-.4-.6-.6-1l-13.7-24h7.4l10.7,18.9Z" class="d"></path><path d="m143.4,110.4h-21.3l-2.9,5.2h-7.4l13.7-24c.2-.4.4-.7.6-1,.2-.3.5-.5.7-.7.3-.2.6-.3,1-.4.4,0,.9-.1,1.5-.1h6.6c1.8,0,3.2.7,4,2.2l13.7,24.1h-7.4l-3-5.2Zm-18.2-5.8h15l-4.6-8c-.2-.4-.5-.7-.8-.9-.3-.2-.6-.3-.9-.3h-2.5c-.7,0-1.3.4-1.7,1.2l-4.5,8Z" class="d"></path><path d="m192.6,99.6v9.7c0,4.2-2.6,6.4-7.9,6.4h-22.8c-5.3,0-7.9-2.1-7.9-6.4v-13.4c0-4.3,2.6-6.4,7.9-6.4h30v6.1h-30c-1,0-1.5.4-1.5,1.3v11.5c0,.9.5,1.3,1.5,1.3h22.7c1,0,1.5-.4,1.5-1.2v-8.7h6.4Z" class="d"></path><path d="m203.7,115.6c-5.3,0-7.9-2.1-7.9-6.4v-19.9h6.4v18.9c0,.8.5,1.2,1.5,1.2h28.6v6.1h-28.6Z" class="d"></path><path d="m244.9,115.6c-6.6,0-9.9-2.8-9.9-8.3v-9.5c0-5.6,3.3-8.4,9.9-8.4h20.3c6.6,0,9.9,2.8,9.9,8.4v9.5c0,5.6-3.3,8.3-9.9,8.3h-20.3Zm0-20.1c-2.3,0-3.4.8-3.4,2.3v9.5c0,1.5,1.1,2.2,3.4,2.2h20.3c2.3,0,3.4-.7,3.4-2.2v-9.5c0-1.5-1.1-2.3-3.4-2.3h-20.3Z" class="d"></path><ellipse ry="35.9" rx="48.2" cy="35.9" cx="137.5" class="d"></ellipse><path d="m138.7,13.9c20.3,0,35,5.8,35,14.6s-3.4,10.5-15.2,12.3c-11.8,1.7-20.8,2.3-27,1.8-6.2-.5-11.9-1.3-17.3-2.3,3.1,4.6,11.8,7.2,26.1,7.8,11.9-.9,20.8-3.4,26.9-7.5,2.8-.9,4.7-.3,5.7,1.6,1.1,1.9.6,4.1-1.5,6.5-6.8,5.3-17.1,8.4-30.8,9.3-24.4,0-39.5-7.5-39.5-21.1s14.5-22.9,37.6-22.9Zm.9,10.1c-12.9,0-20.3,2.6-24.1,5.8,2.3,2.4,10.6,3.3,24.8,3.3s20.9-1.6,20.9-3.5-6-5.6-21.6-5.6Z" class="c"></path><circle r="4.7" cy="44.7" cx="168.7" class="b"></circle></svg>